<svg width="20" height="21" viewBox="0 0 20 21" fill="none" xmlns="http://www.w3.org/2000/svg">
<path d="M11.5 0.401924C11.0439 0.138619 10.5266 0 10 0C9.47339 0 8.95606 0.138619 8.5 0.401924L1 4.73192C0.695969 4.90746 0.443498 5.15992 0.267962 5.46395C0.0924258 5.76798 8.91844e-06 6.11286 0 6.46392V19.8869C0 20.1521 0.105357 20.4065 0.292893 20.594C0.48043 20.7816 0.734784 20.8869 1 20.8869H7C7.26522 20.8869 7.51957 20.7816 7.70711 20.594C7.89464 20.4065 8 20.1521 8 19.8869V13.8869H12V19.8869C12 20.1521 12.1054 20.4065 12.2929 20.594C12.4804 20.7816 12.7348 20.8869 13 20.8869H19C19.2652 20.8869 19.5196 20.7816 19.7071 20.594C19.8946 20.4065 20 20.1521 20 19.8869V6.46392C20 6.11286 19.9076 5.76798 19.732 5.46395C19.5565 5.15992 19.304 4.90746 19 4.73192L11.5 0.401924Z" fill="#1C1C1C"/>
</svg>
